<?xml version="1.0" encoding="utf-8"?>
<!-- Svg Vector Icons : http://www.onlinewebfonts.com/icon -->
<!DOCTYPE svg PUBLIC "-//W3C//DTD SVG 1.1//EN" "http://www.w3.org/Graphics/SVG/1.1/DTD/svg11.dtd">
<svg version="1.1" xmlns="http://www.w3.org/2000/svg" xmlns:xlink="http://www.w3.org/1999/xlink" x="0px" y="0px" viewBox="0 0 256 256" enable-background="new 0 0 256 256" xml:space="preserve">
<metadata> Svg Vector Icons : http://www.onlinewebfonts.com/icon </metadata>
<g><g><g><g><path fill="#000000" d="M237.4,10H18.6c-4.8,0-8.6,3.9-8.6,8.6v218.7c0,4.8,3.9,8.6,8.6,8.6h42.9v-91.5c0-3.1-2.5-5.6-5.6-5.6h-8.9c-3.1,0-5.6-2.5-5.6-5.6V121c0-3.1,2.5-5.6,5.6-5.6h8.8c3.1,0,5.6-2.5,5.6-5.6V95.3c0-14.3,3.4-25.1,10.1-32.5c6.8-7.3,17.9-11,33.4-11h21.1c3.1,0,5.6,2.5,5.6,5.6v22.3c0,3.1-2.5,5.6-5.6,5.6H115c-3.1,0-5.5,0.3-7.4,0.8c-1.9,0.5-3.2,1.4-4,2.8c-0.8,1.3-1.3,2.7-1.6,4.1c-0.2,1.4-0.4,3.3-0.4,5.8v11.2c0,3.1,2.5,5.6,5.6,5.6h19.1c3.1,0,5.3,2.5,5,5.6l-2.4,22.3c-0.3,3.1-3.1,5.6-6.2,5.6h-15.6c-3.1,0-5.6,2.5-5.6,5.6V246h135.7c4.8,0,8.7-3.9,8.7-8.6V18.6C246,13.9,242.1,10,237.4,10z"/></g></g><g></g><g></g><g></g><g></g><g></g><g></g><g></g><g></g><g></g><g></g><g></g><g></g><g></g><g></g><g></g></g></g>
</svg>