<?xml version="1.0" encoding="utf-8"?>
<!-- Svg Vector Icons : http://www.onlinewebfonts.com/icon -->
<!DOCTYPE svg PUBLIC "-//W3C//DTD SVG 1.1//EN" "http://www.w3.org/Graphics/SVG/1.1/DTD/svg11.dtd">
<svg version="1.1" xmlns="http://www.w3.org/2000/svg" xmlns:xlink="http://www.w3.org/1999/xlink" x="0px" y="0px" viewBox="0 0 256 256" enable-background="new 0 0 256 256" xml:space="preserve">
<metadata> Svg Vector Icons : http://www.onlinewebfonts.com/icon </metadata>
<g><g><path fill="#000000" d="M124.9,95.1c0,0-62-4.1-98-49.2c0,0-21.5,36.4,13.2,61.2c0,0-6.6,3.7-19.8-4.6c0,0-4.6,30.6,36.3,45.1c0,0,0,3.3-20.3,1.7c0,0,8.3,25.6,43,32.2c0,0-24.8,23.6-69.4,18.6c0,0,184.3,88.9,211.6-116.1c0,0,20.7-15.7,24.4-24.8l-24.4,7c0,0,18.2-16.5,17.4-25.2c0,0-28.5,12.8-29.8,9.5C208,47.2,131.1,2.1,124.9,95.1z"/></g></g>
</svg>